<?xml version="1.0" standalone="no"?>
<!DOCTYPE svg PUBLIC "-//W3C//DTD SVG 20010904//EN"
 "http://www.w3.org/TR/2001/REC-SVG-20010904/DTD/svg10.dtd">
<svg version="1.0" xmlns="http://www.w3.org/2000/svg"
 width="260.000000pt" height="260.000000pt" viewBox="0 0 260.000000 260.000000"
 preserveAspectRatio="xMidYMid meet">
<metadata>
Created by potrace 1.11, written by Peter Selinger 2001-2013
</metadata>
<g transform="translate(0.000000,260.000000) scale(0.100000,-0.100000)"
fill="#000000" stroke="none">
<path d="M0 1300 l0 -1300 1300 0 1300 0 0 1300 0 1300 -1300 0 -1300 0 0
-1300z m2135 -435 c51 -25 115 -89 140 -140 16 -31 20 -60 20 -130 0 -105 -16
-146 -80 -210 -64 -64 -105 -80 -210 -80 -70 0 -99 4 -130 20 -52 25 -115 89
-140 140 -24 50 -32 169 -15 222 27 82 103 161 185 191 47 18 183 10 230 -13z"/>
</g>
</svg>
